<svg width="44" height="20" viewBox="0 0 44 20" fill="none" xmlns="http://www.w3.org/2000/svg">
<path d="M8.242 0.592H11.57L13.676 6.702L15.808 0.592H19.11L15.938 8.99L18.278 14.866L23.504 0.539999H27.404L20.02 19H16.926L13.676 11.252L10.452 19H7.358L0 0.539999H3.848L9.1 14.866L11.388 8.99L8.242 0.592Z" fill="#2196F3"/>
<path d="M41.0731 5.376C40.9171 5.20267 40.5878 4.97733 40.0851 4.7C39.5824 4.40533 38.9758 4.14533 38.2651 3.92C37.5718 3.67733 36.8524 3.556 36.1071 3.556C34.1484 3.556 33.1691 4.24933 33.1691 5.636C33.1691 6.13867 33.3251 6.53733 33.6371 6.832C33.9491 7.12667 34.4171 7.378 35.0411 7.586C35.6651 7.794 36.4451 8.01933 37.3811 8.262C38.5944 8.574 39.6431 8.938 40.5271 9.354C41.4284 9.77 42.1131 10.3247 42.5811 11.018C43.0664 11.694 43.3091 12.5953 43.3091 13.722C43.3091 15.0393 42.9884 16.1053 42.3471 16.92C41.7231 17.7173 40.8911 18.298 39.8511 18.662C38.8111 19.026 37.6844 19.208 36.4711 19.208C35.0844 19.208 33.7064 19 32.3371 18.584C30.9851 18.1507 29.7804 17.5613 28.7231 16.816L30.3091 13.722C30.4651 13.878 30.7424 14.086 31.1411 14.346C31.5398 14.5887 32.0251 14.84 32.5971 15.1C33.1691 15.3427 33.7931 15.5507 34.4691 15.724C35.1451 15.8973 35.8298 15.984 36.5231 15.984C38.4991 15.984 39.4871 15.3513 39.4871 14.086C39.4871 13.5487 39.2878 13.1153 38.8891 12.786C38.4904 12.4567 37.9271 12.1793 37.1991 11.954C36.4884 11.7287 35.6564 11.4773 34.7031 11.2C33.5244 10.8707 32.5451 10.5067 31.7651 10.108C31.0024 9.692 30.4304 9.18067 30.0491 8.574C29.6678 7.95 29.4771 7.16133 29.4771 6.208C29.4771 4.94267 29.7718 3.88533 30.3611 3.036C30.9678 2.16933 31.7824 1.51933 32.8051 1.086C33.8278 0.635333 34.9631 0.409999 36.2111 0.409999C37.4938 0.409999 38.6898 0.617999 39.7991 1.034C40.9084 1.45 41.8618 1.92667 42.6591 2.464L41.0731 5.376Z" fill="black"/>
</svg>
